<?xml version="1.0" standalone="no"?>
<!DOCTYPE svg PUBLIC "-//W3C//DTD SVG 20010904//EN"
 "http://www.w3.org/TR/2001/REC-SVG-20010904/DTD/svg10.dtd">
<svg version="1.0" xmlns="http://www.w3.org/2000/svg"
 width="1275.000000pt" height="1275.000000pt" viewBox="0 0 1275.000000 1275.000000"
 preserveAspectRatio="xMidYMid meet">
<metadata>
Created by potrace 1.11, written by Peter Selinger 2001-2013
</metadata>
<g transform="translate(0.000000,1275.000000) scale(0.100000,-0.100000)"
fill="#000000" stroke="none">
<path d="M12650 11343 c-19 -2 -132 -12 -250 -24 -1405 -133 -3106 -516 -4815
-1084 -417 -139 -887 -309 -1235 -446 l-85 -34 235 -3 c129 -1 864 -8 1633
-16 l1399 -13 163 122 c855 640 1899 1169 2865 1450 171 50 185 58 90 48z"/>
<path d="M6495 9210 l-1320 -5 -249 -138 c-284 -158 -656 -380 -926 -551 -200
-128 -517 -343 -526 -357 -3 -5 978 -9 2340 -9 l2346 0 122 163 c186 247 324
422 512 646 94 112 181 217 194 232 l23 29 -598 -2 c-329 -2 -1192 -5 -1918
-8z"/>
<path d="M4790 7633 l-2036 -3 -189 -152 c-371 -297 -755 -625 -960 -820 l-99
-95 864 -6 c476 -4 1846 -7 3045 -7 l2181 0 32 161 c55 273 145 557 256 809
25 57 46 108 46 112 0 4 -249 7 -552 6 -304 -2 -1469 -4 -2588 -5z"/>
<path d="M3025 6023 l-2070 -3 -88 -88 c-115 -113 -378 -398 -538 -582 -154
-178 -331 -391 -327 -394 5 -3 7641 14 7644 17 2 2 -6 52 -16 112 -41 227 -71
509 -85 808 l-7 137 -1222 -2 c-671 -2 -2152 -4 -3291 -5z"/>
<path d="M3236 4430 l-3100 -5 200 -96 c420 -204 949 -423 1992 -827 l277
-107 1215 -3 c668 -2 1963 0 2878 4 l1663 6 -15 22 c-46 65 -187 296 -254 414
-81 146 -188 372 -243 514 l-34 88 -740 -3 c-407 -1 -2135 -4 -3839 -7z"/>
<path d="M3960 2839 c79 -29 622 -198 841 -263 1749 -514 3699 -902 5504
-1095 311 -33 785 -75 790 -69 2 2 -80 37 -183 78 -241 96 -665 307 -911 455
-430 257 -753 494 -1181 864 l-45 39 -2435 5 -2435 6 55 -20z"/>
</g>
</svg>
