<?xml version="1.0" encoding="utf-8"?>
<!-- Generator: Adobe Illustrator 19.2.1, SVG Export Plug-In . SVG Version: 6.00 Build 0)  -->
<svg version="1.1" id="Layer_1" xmlns="http://www.w3.org/2000/svg" xmlns:xlink="http://www.w3.org/1999/xlink" x="0px" y="0px"
	 viewBox="0 0 250 194.8" style="enable-background:new 0 0 250 194.8;" xml:space="preserve">
<style type="text/css">
	.st0{fill:#FFFFFF;}
</style>
<path class="st0" d="M176.7,41.7l-75,0.2c0,0-18.3,9.6-33.8,20.7l92,0.1C160,62.7,166.8,53,176.7,41.7z"/>
<path class="st0" d="M155.6,72.7L54,72.9c0,0-15.4,12-24.6,21L149,94C149,94,150.2,83.9,155.6,72.7z"/>
<path class="st0" d="M147.9,104.2l-129.3,0.3c0,0-8.8,8.6-18.6,20.8l150-0.3C150,125,147.9,115.2,147.9,104.2z"/>
<path class="st0" d="M186.9,31.8l-64-0.6c0,0,64.4-26.7,127.1-31.3C250,0,218.9,6.8,186.9,31.8z"/>
<path class="st0" d="M153.3,135.4c0,0,3.1,9.4,10.8,20.5L51.5,156c0,0-36.7-13.6-48.9-20.4L153.3,135.4z"/>
<path class="st0" d="M172.2,166.6c0,0,19.3,18.7,46.2,28.3c0,0-67.3-3.6-142.4-28.6L172.2,166.6z"/>
</svg>
