<?xml version="1.0" encoding="utf-8"?>
<!-- Generator: Adobe Illustrator 16.0.0, SVG Export Plug-In . SVG Version: 6.00 Build 0)  -->
<!DOCTYPE svg PUBLIC "-//W3C//DTD SVG 1.0//EN" "http://www.w3.org/TR/2001/REC-SVG-20010904/DTD/svg10.dtd">
<svg version="1.0" id="Layer_1" xmlns="http://www.w3.org/2000/svg" xmlns:xlink="http://www.w3.org/1999/xlink" x="0px" y="0px"
	 width="612px" height="477.36px" viewBox="0 157.32 612 477.36" enable-background="new 0 157.32 612 477.36" xml:space="preserve"
	>
<path fill="#1B2146" d="M432.562,259.646l-183.6,0.49c0,0-44.798,23.5-82.742,50.673l225.216,0.245
	C391.68,311.054,408.326,287.309,432.562,259.646z"/>
<path fill="#1B2146" d="M380.909,335.534l-248.717,0.49c0,0-37.699,29.376-60.221,51.408l292.781,0.245
	C364.752,387.677,367.689,362.952,380.909,335.534z"/>
<path fill="#1B2146" d="M362.06,412.646l-316.527,0.734c0,0-21.542,21.053-45.533,50.918l367.2-0.734
	C367.2,463.564,362.06,439.574,362.06,412.646z"/>
<path fill="#1B2146" d="M457.531,235.411l-156.672-1.469c0,0,157.651-65.361,311.141-76.623
	C612,157.565,535.867,174.211,457.531,235.411z"/>
<path fill="#2897CA" d="M375.278,489.024c0,0,7.589,23.011,26.438,50.184l-275.645,0.245c0,0-89.841-33.293-119.707-49.939
	L375.278,489.024z"/>
<path fill="#2897CA" d="M421.546,565.401c0,0,47.246,45.778,113.098,69.278c0,0-164.751-8.812-348.596-70.013L421.546,565.401z"/>
</svg>
