<?xml version="1.0" encoding="utf-8"?>
<!-- Generator: Adobe Illustrator 19.2.1, SVG Export Plug-In . SVG Version: 6.00 Build 0)  -->
<svg version="1.1" id="Layer_1" xmlns="http://www.w3.org/2000/svg" xmlns:xlink="http://www.w3.org/1999/xlink" x="0px" y="0px"
	 viewBox="0 0 27.6 27.6" style="enable-background:new 0 0 27.6 27.6;" xml:space="preserve">
<style type="text/css">
	.st0{fill:#BCBEC0;}
</style>
<path class="st0" d="M22.3,0H5.3C2.4,0,0,2.4,0,5.3V11v11.3c0,2.9,2.4,5.3,5.3,5.3h16.9c2.9,0,5.3-2.4,5.3-5.3V11V5.3
	C27.6,2.4,25.2,0,22.3,0z M23.8,3.2l0.6,0v0.6v4.1l-4.7,0l0-4.7L23.8,3.2z M9.9,11c0.9-1.2,2.3-2,3.9-2s3.1,0.8,3.9,2
	c0.6,0.8,0.9,1.8,0.9,2.8c0,2.7-2.2,4.9-4.9,4.9s-4.9-2.2-4.9-4.9C8.9,12.7,9.3,11.8,9.9,11z M24.9,22.3c0,1.5-1.2,2.6-2.6,2.6H5.3
	c-1.5,0-2.6-1.2-2.6-2.6V11h4.1c-0.4,0.9-0.6,1.8-0.6,2.8c0,4.2,3.4,7.6,7.5,7.6c4.2,0,7.5-3.4,7.5-7.6c0-1-0.2-2-0.6-2.8h4.1V22.3z
	"/>
</svg>
