<?xml version="1.0" encoding="utf-8"?>
<!-- Generator: Adobe Illustrator 19.2.1, SVG Export Plug-In . SVG Version: 6.00 Build 0)  -->
<svg version="1.1" id="Layer_1" xmlns="http://www.w3.org/2000/svg" xmlns:xlink="http://www.w3.org/1999/xlink" x="0px" y="0px"
	 viewBox="0 0 25.1 25.1" style="enable-background:new 0 0 25.1 25.1;" xml:space="preserve">
<style type="text/css">
	.st0{fill:#354B68;}
</style>
<path class="st0" d="M20.3,0H4.9C2.2,0,0,2.2,0,4.9V10v10.3c0,2.7,2.2,4.9,4.9,4.9h15.4c2.7,0,4.9-2.2,4.9-4.9V10V4.9
	C25.1,2.2,22.9,0,20.3,0z M21.6,2.9l0.6,0v0.6v3.7l-4.2,0l0-4.3L21.6,2.9z M9,10c0.8-1.1,2.1-1.8,3.6-1.8s2.8,0.7,3.6,1.8
	c0.5,0.7,0.8,1.6,0.8,2.6c0,2.4-2,4.4-4.4,4.4s-4.4-2-4.4-4.4C8.1,11.6,8.4,10.7,9,10z M22.7,20.3c0,1.3-1.1,2.4-2.4,2.4H4.9
	c-1.3,0-2.4-1.1-2.4-2.4V10h3.7c-0.3,0.8-0.5,1.7-0.5,2.6c0,3.8,3.1,6.9,6.9,6.9c3.8,0,6.9-3.1,6.9-6.9c0-0.9-0.2-1.8-0.5-2.6h3.7
	V20.3z"/>
</svg>
