<?xml version="1.0" encoding="utf-8"?>
<!-- Generator: Adobe Illustrator 19.2.1, SVG Export Plug-In . SVG Version: 6.00 Build 0)  -->
<svg version="1.1" id="Layer_1" xmlns="http://www.w3.org/2000/svg" xmlns:xlink="http://www.w3.org/1999/xlink" x="0px" y="0px"
	 viewBox="0 0 175.9 40.6" style="enable-background:new 0 0 175.9 40.6;" xml:space="preserve">
<style type="text/css">
	.st0{fill:#1C2147;}
	.st1{fill:#1F95CA;}
</style>
<path class="st0" d="M54.2,15.1c1.6,0,3.3,0.2,4.2,0.5L58,18.2c-2.2-0.3-2.7-0.3-3.4-0.3c-2.3,0-3.9,1.3-4.2,3.4s0.8,3.5,3.1,3.5
	c0.7,0,1.1,0.1,3.5-0.3L56.6,27c-0.9,0.3-2.7,0.5-4.3,0.5c-3.1,0-5.9-2.2-5.2-6.2C47.6,17.4,51.2,15.1,54.2,15.1z"/>
<path class="st0" d="M64.2,27.6c-3.1,0-6.3-1.7-5.6-6.2s4.5-6.2,7.6-6.2c3,0,6.3,1.7,5.6,6.2C71.1,25.9,67.2,27.6,64.2,27.6z
	 M65.7,17.9c-1.5,0-3.4,1-3.8,3.5c-0.4,2.5,1.2,3.4,2.7,3.4s3.4-0.9,3.8-3.4S67.2,17.9,65.7,17.9z"/>
<path class="st0" d="M81.1,15.3h3.5l-6.2,12.1h-3L73,15.3h3.6l1,7.8L81.1,15.3z"/>
<path class="st0" d="M87.9,24.1c-0.1,0.4,0,0.7,0.5,0.7h5L93,27.4h-5.6c-2.3-0.1-3.2-0.7-2.9-2.8l1.5-9.3h8.9L94.4,18h-5.6l-0.3,1.9
	h5.1l-0.4,2.6h-5.1L87.9,24.1z"/>
<path class="st0" d="M102.5,22.5c0.4,0.1,0.6,0.5,0.6,0.5c0.9,1.4,1.7,3,2.3,4.3h-3.6c-0.5-1.1-1.3-2.8-2-3.9
	c-0.1-0.2-0.2-0.5-0.5-0.5H99l-0.7,4.4H95l1.9-12.1h5.3c2.3,0,3.9,1.3,3.5,3.8C105.3,21.3,103.8,22.3,102.5,22.5z M100.9,20.4
	c0.6,0,1.3-0.5,1.4-1.3s-0.4-1.2-1.1-1.2h-1.5l-0.4,2.5H100.9z"/>
<path class="st1" d="M107,23.8c1,0.6,2.9,1.1,4.1,1.1c0.9,0,1.6-0.2,1.8-0.9c0.2-0.7-0.7-1-1.8-1.4l-0.9-0.3
	c-2.9-0.9-2.5-3.1-2.5-3.5c0.4-2.1,2.4-3.7,5.7-3.7c1.2,0,2.9,0.4,3.7,0.9l-0.4,2.5c-1.7-0.6-2.9-0.8-3.8-0.8
	c-1.2,0-1.8,0.5-1.9,1.1c0,0-0.1,0.6,0.6,0.8l0.6,0.2c2.6,0.8,4.7,1.6,4.1,4.2c-0.7,2.8-2.8,3.6-5.6,3.6c-1.4,0-3.1-0.4-4.1-1
	L107,23.8z"/>
<path class="st1" d="M165.9,23.8c1,0.6,2.9,1.1,4.1,1.1c0.9,0,1.6-0.2,1.8-0.9c0.2-0.7-0.7-1-1.8-1.4l-0.9-0.3
	c-2.9-0.9-2.5-3.1-2.5-3.5c0.4-2.1,2.4-3.7,5.7-3.7c1.2,0,2.9,0.4,3.7,0.9l-0.4,2.5c-1.7-0.6-2.9-0.8-3.8-0.8
	c-1.2,0-1.8,0.5-1.9,1.1c0,0-0.1,0.6,0.6,0.8l0.6,0.2c2.6,0.8,4.7,1.6,4.1,4.2c-0.7,2.8-2.8,3.6-5.6,3.6c-1.4,0-3.1-0.4-4.1-1
	L165.9,23.8z"/>
<path class="st1" d="M117.6,27.4l1.9-12.1h3.4l-0.7,4.5h3.5l0.7-4.5h3.4l-1.9,12.1h-3.4l0.8-5h-3.5l-0.8,5H117.6z"/>
<path class="st1" d="M137.7,27.4c-0.1-1.1-0.2-2.1-0.3-3.1h-3.5c-0.4,1-0.8,2-1.3,3.1h-3.4c1.8-4,3.5-7.5,6.4-12.1h2.9
	c1.4,4.6,2,8.1,2.6,12.1H137.7z M135,21.9h2.1c-0.2-1-0.3-2.1-0.5-3.2C136,19.8,135.4,20.9,135,21.9z"/>
<path class="st1" d="M149.9,22.5c0.4,0.1,0.6,0.5,0.6,0.5c0.9,1.4,1.7,3,2.3,4.3h-3.6c-0.5-1.1-1.3-2.8-2-3.9
	c-0.1-0.2-0.2-0.5-0.5-0.5h-0.3l-0.7,4.4h-3.4l1.9-12.1h5.3c2.3,0,3.9,1.3,3.5,3.8C152.7,21.3,151.2,22.3,149.9,22.5z M148.3,20.4
	c0.6,0,1.3-0.5,1.4-1.3c0.1-0.8-0.4-1.2-1.1-1.2h-1.5l-0.4,2.5H148.3z"/>
<path class="st1" d="M160.8,27.4c-0.9-1.5-1.9-2.5-2.7-3.2l-0.5,3.2h-3.4l1.9-12.1h3.4l-0.5,3.3c1.1-0.9,2.1-1.9,3.1-3.3h3.6
	c-0.9,1.6-3.9,4.8-5.9,6.1c1.5,1.4,3.4,3.1,5,6C164.8,27.4,160.8,27.4,160.8,27.4z"/>
<path class="st0" d="M36.8,8.7H21.2c0,0-3.8,2-7,4.3h19.2C33.3,13.1,34.7,11,36.8,8.7z"/>
<path class="st0" d="M32.4,15.1H11.2c0,0-3.2,2.5-5.1,4.4H31C31,19.6,31.3,17.5,32.4,15.1z"/>
<path class="st0" d="M30.8,21.7L3.9,21.8c0,0-1.8,1.8-3.9,4.3L31.2,26C31.2,26,30.8,24,30.8,21.7z"/>
<path class="st0" d="M38.9,6.6L25.6,6.5C25.6,6.5,39,1,52.1,0C52.1,0,45.6,1.4,38.9,6.6z"/>
<path class="st1" d="M31.9,28.2c0,0,0.6,2,2.2,4.3H10.7c0,0-7.6-2.8-10.2-4.2L31.9,28.2z"/>
<path class="st1" d="M35.9,34.7c0,0,4,3.9,9.6,5.9c0,0-14-0.7-29.7-5.9H35.9z"/>
</svg>
