<?xml version="1.0" encoding="utf-8"?>
<!-- Generator: Adobe Illustrator 16.0.0, SVG Export Plug-In . SVG Version: 6.00 Build 0)  -->
<!DOCTYPE svg PUBLIC "-//W3C//DTD SVG 1.0//EN" "http://www.w3.org/TR/2001/REC-SVG-20010904/DTD/svg10.dtd">
<svg version="1.0" id="Layer_1" xmlns="http://www.w3.org/2000/svg" xmlns:xlink="http://www.w3.org/1999/xlink" x="0px" y="0px"
	 width="611.677px" height="335.27px" viewBox="-0.086 228.365 611.677 335.27"
	 enable-background="new -0.086 228.365 611.677 335.27" xml:space="preserve">
<g>
	<path fill="#FFFFFF" d="M34.796,504.687c7.778,0,15.556,1.228,19.649,2.456l-2.047,11.871c-10.643-1.637-12.69-1.228-15.965-1.228
		c-11.053,0-18.421,6.141-20.059,16.374c-1.637,10.234,3.685,16.375,14.737,16.375c3.275,0,5.322,0.409,16.375-1.229l-2.047,11.872
		c-4.503,1.228-12.69,2.456-20.468,2.456c-14.328,0-27.837-10.644-24.562-29.475C3.684,515.33,20.059,504.687,34.796,504.687z"/>
	<path fill="#FFFFFF" d="M81.873,563.635c-14.328,0-29.884-8.188-26.2-29.475c3.275-21.286,21.287-29.474,36.024-29.474
		c14.328,0,29.883,8.188,26.608,29.474C114.622,555.447,96.201,563.635,81.873,563.635z M89.242,517.786
		c-6.959,0-15.965,4.503-17.603,16.374c-2.047,11.872,5.731,16.375,12.69,16.375s15.965-4.503,17.603-16.375
		C103.979,522.289,96.201,517.786,89.242,517.786z"/>
	<path fill="#FFFFFF" d="M162.518,505.505h16.784l-29.474,57.312h-13.918l-11.053-57.312h16.784l4.503,36.843L162.518,505.505z"/>
	<path fill="#FFFFFF" d="M194.448,546.851c-0.41,1.638,0,3.275,2.456,3.275h23.743l-2.047,12.69h-26.608
		c-10.644-0.41-15.146-3.275-13.509-13.1l6.959-44.212h42.164l-2.456,12.281h-26.199l-1.638,9.415h24.153l-1.638,12.281h-24.152
		L194.448,546.851z"/>
	<path fill="#FFFFFF" d="M264.04,539.482c1.638,0.409,2.866,2.047,2.866,2.456c4.503,6.55,8.187,14.328,10.644,20.468h-17.193
		c-2.047-5.321-6.141-13.1-9.416-18.421c-0.409-0.818-1.228-2.456-2.456-2.456h-1.228l-3.275,20.877h-15.965l9.006-57.311h24.971
		c10.644,0,18.421,6.141,16.375,18.012C277.14,533.751,269.771,538.664,264.04,539.482z M256.262,529.657
		c2.866,0,6.141-2.456,6.959-6.141c0.819-3.684-2.046-5.73-4.912-5.73h-6.959l-1.637,11.871H256.262z"/>
	<path fill="#FFFFFF" d="M284.918,546.032c4.503,2.865,13.509,5.321,19.24,5.321c4.503,0,7.369-1.228,8.597-4.503
		c1.228-3.274-3.685-4.912-8.597-6.55l-4.503-1.637c-13.509-4.094-11.872-14.737-11.872-16.375
		c1.638-10.234,11.462-17.603,27.019-17.603c5.73,0,13.918,1.638,17.603,4.094l-2.047,11.871c-8.188-2.865-13.51-3.685-17.603-3.685
		c-5.731,0-8.597,2.457-9.006,4.913c0,0-0.409,2.865,2.866,3.684l2.865,0.819c12.281,4.094,22.105,7.368,19.24,20.059
		c-3.275,13.1-13.1,16.784-26.199,16.784c-6.959,0-14.737-2.047-19.649-4.912L284.918,546.032z"/>
	<path fill="#FFFFFF" d="M564.104,546.032c4.503,2.865,13.509,5.321,19.24,5.321c4.503,0,7.368-1.228,8.597-4.503
		c1.228-3.274-3.685-4.912-8.597-6.55l-4.503-1.637c-13.51-4.094-11.872-14.737-11.872-16.375
		c1.638-10.234,11.462-17.603,27.019-17.603c5.73,0,13.918,1.638,17.603,4.094l-2.047,11.871
		c-8.188-2.865-13.509-3.685-17.603-3.685c-5.731,0-8.597,2.457-9.006,4.913c0,0-0.41,2.865,2.865,3.684l2.865,0.819
		c12.281,4.094,22.105,7.368,19.24,20.059c-3.274,13.1-13.1,16.784-26.199,16.784c-6.959,0-14.737-2.047-19.649-4.912
		L564.104,546.032z"/>
	<path fill="#FFFFFF" d="M335.27,562.816l9.006-57.312h15.966l-3.275,21.287h16.784l3.274-21.287h15.966l-9.006,57.312h-15.557
		l3.685-23.743h-16.784l-3.684,23.743H335.27z"/>
	<path fill="#FFFFFF" d="M430.651,562.816c-0.409-5.322-0.818-9.825-1.638-14.737H412.23c-2.047,4.912-4.094,9.415-6.141,14.737
		h-15.966c8.597-18.831,16.784-35.615,30.293-57.312h13.919c6.959,21.696,9.415,38.48,12.281,57.312H430.651z M417.552,536.617
		h10.234c-0.819-4.913-1.638-9.825-2.456-15.557C422.464,526.792,420.008,531.704,417.552,536.617z"/>
	<path fill="#FFFFFF" d="M488.781,539.482c1.638,0.409,2.865,2.047,2.865,2.456c4.503,6.55,8.188,14.328,10.644,20.468h-17.193
		c-2.047-5.321-6.14-13.1-9.415-18.421c-0.409-0.818-1.229-2.456-2.456-2.456h-1.229l-3.274,20.877h-15.966l9.007-57.311h24.971
		c10.644,0,18.422,6.141,16.375,18.012C501.881,533.751,494.513,538.664,488.781,539.482z M481.003,529.657
		c2.866,0,6.141-2.456,6.96-6.141c0.818-3.684-2.047-5.73-4.913-5.73h-6.959l-1.638,11.871H481.003z"/>
	<path fill="#FFFFFF" d="M540.361,562.816c-4.094-6.96-9.006-11.872-13.1-15.557l-2.456,15.557H508.84l9.006-57.312h15.966
		l-2.456,15.556c5.321-4.503,9.824-9.006,14.736-15.556h17.193c-4.093,7.369-18.421,22.516-27.836,29.065
		c7.368,6.55,15.965,14.327,23.743,28.655h-18.831V562.816z"/>
</g>
<g>
	<path fill="#FFFFFF" d="M366.791,272.986h-80.236c0,0-19.649,10.234-36.024,22.106h98.656
		C348.778,295.501,356.147,284.857,366.791,272.986z"/>
	<path fill="#FFFFFF" d="M344.275,306.145H235.385c0,0-16.375,12.69-26.2,22.515h128.131
		C337.316,328.66,338.545,318.016,344.275,306.145z"/>
	<path fill="#FFFFFF" d="M336.088,339.712l-138.365,0.409c0,0-9.416,9.006-20.059,22.106l160.881-0.41
		C338.135,362.228,336.088,351.584,336.088,339.712z"/>
	<path fill="#FFFFFF" d="M366.791,262.342l-68.364-0.409c0,0,69.183-28.656,136.318-33.568
		C434.336,228.365,401.178,235.734,366.791,262.342z"/>
	<path fill="#FFFFFF" d="M341.819,373.28c0,0,3.275,10.234,11.462,22.105H232.519c0,0-39.299-14.737-52.398-21.696L341.819,373.28z"
		/>
	<path fill="#FFFFFF" d="M361.878,406.438c0,0,20.469,20.06,49.533,30.293c0,0-72.048-3.684-152.693-30.702L361.878,406.438z"/>
</g>
</svg>
