<?xml version="1.0" encoding="utf-8"?>
<!-- Generator: Adobe Illustrator 19.2.1, SVG Export Plug-In . SVG Version: 6.00 Build 0)  -->
<svg version="1.1" id="Layer_1" xmlns="http://www.w3.org/2000/svg" xmlns:xlink="http://www.w3.org/1999/xlink" x="0px" y="0px"
	 viewBox="0 0 149.5 81.9" style="enable-background:new 0 0 149.5 81.9;" xml:space="preserve">
<style type="text/css">
	.st0{fill:#354B68;}
</style>
<g>
	<path class="st0" d="M8.5,67.5c1.9,0,3.8,0.3,4.8,0.6L12.8,71c-2.6-0.4-3.1-0.3-3.9-0.3c-2.7,0-4.5,1.5-4.9,4c-0.4,2.5,0.9,4,3.6,4
		c0.8,0,1.3,0.1,4-0.3l-0.5,2.9c-1.1,0.3-3.1,0.6-5,0.6c-3.5,0-6.8-2.6-6-7.2C0.9,70.1,4.9,67.5,8.5,67.5z"/>
	<path class="st0" d="M20,81.9c-3.5,0-7.3-2-6.4-7.2c0.8-5.2,5.2-7.2,8.8-7.2c3.5,0,7.3,2,6.5,7.2C28,79.9,23.5,81.9,20,81.9z
		 M21.8,70.7c-1.7,0-3.9,1.1-4.3,4c-0.5,2.9,1.4,4,3.1,4c1.7,0,3.9-1.1,4.3-4C25.4,71.8,23.5,70.7,21.8,70.7z"/>
	<path class="st0" d="M39.7,67.7h4.1l-7.2,14h-3.4l-2.7-14h4.1l1.1,9L39.7,67.7z"/>
	<path class="st0" d="M47.5,77.8c-0.1,0.4,0,0.8,0.6,0.8h5.8l-0.5,3.1h-6.5c-2.6-0.1-3.7-0.8-3.3-3.2l1.7-10.8h10.3L55,70.7h-6.4
		L48.2,73h5.9l-0.4,3h-5.9L47.5,77.8z"/>
	<path class="st0" d="M64.5,76c0.4,0.1,0.7,0.5,0.7,0.6c1.1,1.6,2,3.5,2.6,5h-4.2c-0.5-1.3-1.5-3.2-2.3-4.5
		c-0.1-0.2-0.3-0.6-0.6-0.6h-0.3l-0.8,5.1h-3.9l2.2-14H64c2.6,0,4.5,1.5,4,4.4C67.7,74.6,65.9,75.8,64.5,76z M62.6,73.6
		c0.7,0,1.5-0.6,1.7-1.5c0.2-0.9-0.5-1.4-1.2-1.4h-1.7l-0.4,2.9H62.6z"/>
	<path class="st0" d="M69.6,77.6c1.1,0.7,3.3,1.3,4.7,1.3c1.1,0,1.8-0.3,2.1-1.1c0.3-0.8-0.9-1.2-2.1-1.6l-1.1-0.4
		c-3.3-1-2.9-3.6-2.9-4c0.4-2.5,2.8-4.3,6.6-4.3c1.4,0,3.4,0.4,4.3,1l-0.5,2.9c-2-0.7-3.3-0.9-4.3-0.9c-1.4,0-2.1,0.6-2.2,1.2
		c0,0-0.1,0.7,0.7,0.9l0.7,0.2c3,1,5.4,1.8,4.7,4.9c-0.8,3.2-3.2,4.1-6.4,4.1c-1.7,0-3.6-0.5-4.8-1.2L69.6,77.6z"/>
	<path class="st0" d="M137.8,77.6c1.1,0.7,3.3,1.3,4.7,1.3c1.1,0,1.8-0.3,2.1-1.1c0.3-0.8-0.9-1.2-2.1-1.6l-1.1-0.4
		c-3.3-1-2.9-3.6-2.9-4c0.4-2.5,2.8-4.3,6.6-4.3c1.4,0,3.4,0.4,4.3,1l-0.5,2.9c-2-0.7-3.3-0.9-4.3-0.9c-1.4,0-2.1,0.6-2.2,1.2
		c0,0-0.1,0.7,0.7,0.9l0.7,0.2c3,1,5.4,1.8,4.7,4.9c-0.8,3.2-3.2,4.1-6.4,4.1c-1.7,0-3.6-0.5-4.8-1.2L137.8,77.6z"/>
	<path class="st0" d="M81.9,81.7l2.2-14h3.9l-0.8,5.2h4.1l0.8-5.2h3.9l-2.2,14H90l0.9-5.8h-4.1l-0.9,5.8H81.9z"/>
	<path class="st0" d="M105.2,81.7c-0.1-1.3-0.2-2.4-0.4-3.6h-4.1c-0.5,1.2-1,2.3-1.5,3.6h-3.9c2.1-4.6,4.1-8.7,7.4-14h3.4
		c1.7,5.3,2.3,9.4,3,14H105.2z M102,75.3h2.5c-0.2-1.2-0.4-2.4-0.6-3.8C103.2,72.9,102.6,74.1,102,75.3z"/>
	<path class="st0" d="M119.4,76c0.4,0.1,0.7,0.5,0.7,0.6c1.1,1.6,2,3.5,2.6,5h-4.2c-0.5-1.3-1.5-3.2-2.3-4.5
		c-0.1-0.2-0.3-0.6-0.6-0.6h-0.3l-0.8,5.1h-3.9l2.2-14h6.1c2.6,0,4.5,1.5,4,4.4C122.6,74.6,120.8,75.8,119.4,76z M117.5,73.6
		c0.7,0,1.5-0.6,1.7-1.5c0.2-0.9-0.5-1.4-1.2-1.4h-1.7l-0.4,2.9H117.5z"/>
	<path class="st0" d="M132,81.7c-1-1.7-2.2-2.9-3.2-3.8l-0.6,3.8h-3.9l2.2-14h3.9l-0.6,3.8c1.3-1.1,2.4-2.2,3.6-3.8h4.2
		c-1,1.8-4.5,5.5-6.8,7.1c1.8,1.6,3.9,3.5,5.8,7H132z"/>
</g>
<g>
	<path class="st0" d="M89.6,10.9L70,10.9c0,0-4.8,2.5-8.8,5.4l24.1,0C85.2,16.4,87,13.8,89.6,10.9z"/>
	<path class="st0" d="M84.1,19l-26.6,0c0,0-4,3.1-6.4,5.5l31.3,0C82.4,24.5,82.7,21.9,84.1,19z"/>
	<path class="st0" d="M82.1,27.2l-33.8,0.1c0,0-2.3,2.2-4.9,5.4l39.3-0.1C82.6,32.7,82.1,30.1,82.1,27.2z"/>
	<path class="st0" d="M89.6,8.3L72.9,8.2c0,0,16.9-7,33.3-8.2C106.1,0,98,1.8,89.6,8.3z"/>
	<path class="st0" d="M83.5,35.4c0,0,0.8,2.5,2.8,5.4l-29.5,0c0,0-9.6-3.6-12.8-5.3L83.5,35.4z"/>
	<path class="st0" d="M88.4,43.5c0,0,5,4.9,12.1,7.4c0,0-17.6-0.9-37.3-7.5L88.4,43.5z"/>
</g>
</svg>
