<?xml version="1.0" encoding="utf-8"?>
<!-- Generator: Adobe Illustrator 19.2.1, SVG Export Plug-In . SVG Version: 6.00 Build 0)  -->
<svg version="1.1" id="Layer_1" xmlns="http://www.w3.org/2000/svg" xmlns:xlink="http://www.w3.org/1999/xlink" x="0px" y="0px"
	 viewBox="0 0 30.5 24.8" style="enable-background:new 0 0 30.5 24.8;" xml:space="preserve">
<style type="text/css">
	.st0{fill:#354B68;}
</style>
<path class="st0" d="M30.5,2.9c-1.1,0.5-2.3,0.8-3.6,1c1.3-0.8,2.3-2,2.7-3.5c-1.2,0.7-2.5,1.2-4,1.5c-1.1-1.2-2.8-2-4.6-2
	c-3.4,0-6.2,2.8-6.2,6.2c0,0.5,0.1,1,0.2,1.4C9.8,7.4,5.2,4.9,2.1,1.1c-0.5,0.9-0.8,2-0.8,3.1c0,2.2,1.1,4.1,2.8,5.2
	c-1,0-2-0.3-2.8-0.8v0.1c0,3,2.2,5.6,5,6.1c-0.5,0.1-1.1,0.2-1.6,0.2c-0.4,0-0.8,0-1.2-0.1c0.8,2.5,3.1,4.3,5.8,4.3
	C7.1,21,4.4,22,1.5,22c-0.5,0-1,0-1.5-0.1c2.8,1.8,6.1,2.8,9.6,2.8c11.5,0,17.8-9.5,17.8-17.8c0-0.3,0-0.5,0-0.8
	C28.6,5.3,29.6,4.2,30.5,2.9"/>
</svg>
