<?xml version="1.0" encoding="utf-8"?>
<!-- Generator: Adobe Illustrator 16.0.0, SVG Export Plug-In . SVG Version: 6.00 Build 0)  -->
<!DOCTYPE svg PUBLIC "-//W3C//DTD SVG 1.0//EN" "http://www.w3.org/TR/2001/REC-SVG-20010904/DTD/svg10.dtd">
<svg version="1.0" id="Layer_1" xmlns="http://www.w3.org/2000/svg" xmlns:xlink="http://www.w3.org/1999/xlink" x="0px" y="0px"
	 width="612px" height="500.502px" viewBox="0 146.988 612 500.502" enable-background="new 0 146.988 612 500.502"
	 xml:space="preserve">
<path fill="#FFFFFF" d="M612,206.454c-22.3,9.911-47.077,17.344-71.854,19.822c24.777-14.867,47.077-39.644,54.511-69.376
	c-24.777,14.866-52.033,24.777-79.288,29.733c-22.3-24.777-54.51-39.644-91.676-39.644c-69.377,0-126.364,56.988-126.364,126.364
	c0,9.911,0,19.822,2.478,29.733c-101.587-7.433-195.741-56.988-257.684-133.797c-9.911,19.822-17.344,39.644-17.344,64.421
	c0,44.599,22.3,81.765,56.988,104.065c-19.822,0-39.644-7.434-56.988-14.867v2.478c0,61.943,42.122,111.498,101.587,123.887
	c-9.911,2.478-22.299,4.955-32.21,4.955c-7.433,0-14.866,0-24.777-2.478c14.866,49.555,61.943,86.721,116.454,86.721
	c-42.122,34.688-96.632,54.51-156.097,54.51c-9.911,0-19.822,0-29.733-2.478c54.51,34.688,121.409,56.988,193.263,56.988
	c230.429,0,356.793-190.786,356.793-356.794c0-4.956,0-9.911,0-17.344C574.834,253.53,594.656,231.231,612,206.454"/>
</svg>
